<mxfile host="app.diagrams.net" modified="2024-06-17T02:44:16.678Z" agent="Mozilla/5.0 (Windows NT 10.0; Win64; x64) AppleWebKit/537.36 (KHTML, like Gecko) Chrome/124.0.0.0 Safari/537.36" version="24.0.7" etag="mjricp5E2CiDIJW5Nw90" type="github">
  <diagram name="第 1 页" id="BOajuvCXpGkZkGKFPVic">
    <mxGraphModel>
      <root>
        <mxCell id="0" />
        <mxCell id="1" parent="0" />
      </root>
    </mxGraphModel>
  </diagram>
</mxfile>
